<svg width="34" height="37" viewBox="0 0 34 37" fill="none" xmlns="http://www.w3.org/2000/svg">
<path d="M30.333 0.778992H3.66634C1.82801 0.778992 0.333008 2.17654 0.333008 3.89504V33.4975C0.333008 35.216 1.82801 36.6135 3.66634 36.6135H30.333C32.1713 36.6135 33.6663 35.216 33.6663 33.4975V3.89504C33.6663 2.17654 32.1713 0.778992 30.333 0.778992ZM10.333 31.1605C10.333 31.5905 9.96051 31.9395 9.49967 31.9395H6.16634C5.70551 31.9395 5.33301 31.5905 5.33301 31.1605V29.6024C5.33301 29.1724 5.70551 28.8234 6.16634 28.8234H9.49967C9.96051 28.8234 10.333 29.1724 10.333 29.6024V31.1605ZM10.333 24.9284C10.333 25.3584 9.96051 25.7074 9.49967 25.7074H6.16634C5.70551 25.7074 5.33301 25.3584 5.33301 24.9284V23.3703C5.33301 22.9403 5.70551 22.5913 6.16634 22.5913H9.49967C9.96051 22.5913 10.333 22.9403 10.333 23.3703V24.9284ZM10.333 18.6963C10.333 19.1263 9.96051 19.4753 9.49967 19.4753H6.16634C5.70551 19.4753 5.33301 19.1263 5.33301 18.6963V17.1382C5.33301 16.7082 5.70551 16.3592 6.16634 16.3592H9.49967C9.96051 16.3592 10.333 16.7082 10.333 17.1382V18.6963ZM19.4997 31.1605C19.4997 31.5905 19.1272 31.9395 18.6663 31.9395H15.333C14.8722 31.9395 14.4997 31.5905 14.4997 31.1605V29.6024C14.4997 29.1724 14.8722 28.8234 15.333 28.8234H18.6663C19.1272 28.8234 19.4997 29.1724 19.4997 29.6024V31.1605ZM19.4997 24.9284C19.4997 25.3584 19.1272 25.7074 18.6663 25.7074H15.333C14.8722 25.7074 14.4997 25.3584 14.4997 24.9284V23.3703C14.4997 22.9403 14.8722 22.5913 15.333 22.5913H18.6663C19.1272 22.5913 19.4997 22.9403 19.4997 23.3703V24.9284ZM19.4997 18.6963C19.4997 19.1263 19.1272 19.4753 18.6663 19.4753H15.333C14.8722 19.4753 14.4997 19.1263 14.4997 18.6963V17.1382C14.4997 16.7082 14.8722 16.3592 15.333 16.3592H18.6663C19.1272 16.3592 19.4997 16.7082 19.4997 17.1382V18.6963ZM28.6663 31.1605C28.6663 31.5905 28.2938 31.9395 27.833 31.9395H24.4997C24.0388 31.9395 23.6663 31.5905 23.6663 31.1605V23.3703C23.6663 22.9403 24.0388 22.5913 24.4997 22.5913H27.833C28.2938 22.5913 28.6663 22.9403 28.6663 23.3703V31.1605ZM28.6663 18.6963C28.6663 19.1263 28.2938 19.4753 27.833 19.4753H24.4997C24.0388 19.4753 23.6663 19.1263 23.6663 18.6963V17.1382C23.6663 16.7082 24.0388 16.3592 24.4997 16.3592H27.833C28.2938 16.3592 28.6663 16.7082 28.6663 17.1382V18.6963ZM28.6663 12.4642C28.6663 12.8942 28.2938 13.2432 27.833 13.2432H6.16634C5.70551 13.2432 5.33301 12.8942 5.33301 12.4642V6.23208C5.33301 5.80206 5.70551 5.45306 6.16634 5.45306H27.833C28.2938 5.45306 28.6663 5.80206 28.6663 6.23208V12.4642Z" fill="#FF794D"/>
</svg>
