<svg width="42" height="40" viewBox="0 0 42 40" fill="none" xmlns="http://www.w3.org/2000/svg">
<path d="M29.2494 19C31.7807 19 33.8327 16.948 33.8327 14.4167C33.8327 11.8854 31.7807 9.83337 29.2494 9.83337C26.718 9.83337 24.666 11.8854 24.666 14.4167C24.666 16.948 26.718 19 29.2494 19Z" fill="#FF794D"/>
<path d="M16.4163 9.83335C18.9476 9.83335 20.9997 7.78133 20.9997 5.25002C20.9997 2.71872 18.9476 0.666687 16.4163 0.666687C13.885 0.666687 11.833 2.71872 11.833 5.25002C11.833 7.78133 13.885 9.83335 16.4163 9.83335Z" fill="#FF794D"/>
<path d="M38.4273 28.405L22.3664 29.802C20.8796 29.9312 19.3882 29.604 18.0929 28.8633L13.6663 26.3333H23.9953C25.3786 26.3333 26.4997 25.2122 26.4997 23.829C26.4997 22.6236 25.6417 21.5896 24.4564 21.3668L15.1825 19.6279C12.9541 19.2099 10.6918 19 8.42484 19H0.833008V32.2724L15.9113 38.558C17.5805 39.1841 19.4267 39.1749 21.1253 38.7459L41.1663 30.9167C41.1663 29.4381 39.8995 28.2767 38.4273 28.405Z" fill="#FF794D"/>
</svg>
