<svg width="42" height="26" viewBox="0 0 42 26" fill="none" xmlns="http://www.w3.org/2000/svg">
<path d="M41.6683 1.79167C41.4569 1.28261 41.0524 0.878073 40.5433 0.666666C40.2929 0.559914 40.0239 0.503292 39.7517 0.5H29.335C28.7825 0.5 28.2526 0.719494 27.8619 1.11019C27.4712 1.5009 27.2517 2.0308 27.2517 2.58333C27.2517 3.13587 27.4712 3.66577 27.8619 4.05647C28.2526 4.44717 28.7825 4.66667 29.335 4.66667H34.7308L23.085 16.3125L16.2308 9.4375C16.0372 9.24223 15.8067 9.08724 15.5529 8.98148C15.299 8.87571 15.0267 8.82125 14.7517 8.82125C14.4766 8.82125 14.2043 8.87571 13.9505 8.98148C13.6966 9.08724 13.4662 9.24223 13.2725 9.4375L0.772496 21.9375C0.577229 22.1312 0.422241 22.3616 0.316473 22.6155C0.210705 22.8693 0.15625 23.1416 0.15625 23.4167C0.15625 23.6917 0.210705 23.964 0.316473 24.2179C0.422241 24.4717 0.577229 24.7022 0.772496 24.8958C0.966169 25.0911 1.19659 25.2461 1.45046 25.3519C1.70434 25.4576 1.97664 25.5121 2.25166 25.5121C2.52669 25.5121 2.79899 25.4576 3.05286 25.3519C3.30674 25.2461 3.53716 25.0911 3.73083 24.8958L14.7517 13.8542L21.6058 20.7292C21.7995 20.9244 22.0299 21.0794 22.2838 21.1852C22.5377 21.291 22.81 21.3454 23.085 21.3454C23.36 21.3454 23.6323 21.291 23.8862 21.1852C24.1401 21.0794 24.3705 20.9244 24.5642 20.7292L37.6683 7.60417V13C37.6683 13.5525 37.8878 14.0824 38.2785 14.4731C38.6692 14.8638 39.1991 15.0833 39.7517 15.0833C40.3042 15.0833 40.8341 14.8638 41.2248 14.4731C41.6155 14.0824 41.835 13.5525 41.835 13V2.58333C41.8317 2.31109 41.7751 2.04213 41.6683 1.79167Z" fill="#FF794D"/>
</svg>
